PathFileType	4	(X/Y/Z)	s07c0302.trc
DataRate	CameraRate	NumFrames	NumMarkers	Units	OrigDataRate	OrigDataStartFrame	OrigNumFrames
200	200	7	48	mm	200	1250	2000
Frame#	Time	racr			lacr			c7			jug			rlel			rdr			llel			ldr			s2			lic			ric			lasi			rasi			rpsi			lpsi			rgt			lgt			rth1			rth2			rth3			rth4			rlfc			rmfc			rsh1			rsh2			rsh3			rsh4			rlmal			rcal			rtoe			rmt5			lth1			lth2			lth4			lth3			llfc			lmfc			lsh1			lsh2			lsh3			lsh4			llmal			lcal			ltoe			lmt5			SBIKE			LBIKE			RBIKE			
		X1	Y1	Z1	X2	Y2	Z2	X3	Y3	Z3	X4	Y4	Z4	X5	Y5	Z5	X6	Y6	Z6	X7	Y7	Z7	X8	Y8	Z8	X9	Y9	Z9	X10	Y10	Z10	X11	Y11	Z11	X12	Y12	Z12	X13	Y13	Z13	X14	Y14	Z14	X15	Y15	Z15	X16	Y16	Z16	X17	Y17	Z17	X18	Y18	Z18	X19	Y19	Z19	X20	Y20	Z20	X21	Y21	Z21	X22	Y22	Z22	X23	Y23	Z23	X24	Y24	Z24	X25	Y25	Z25	X26	Y26	Z26	X27	Y27	Z27	X28	Y28	Z28	X29	Y29	Z29	X30	Y30	Z30	X31	Y31	Z31	X32	Y32	Z32	X33	Y33	Z33	X34	Y34	Z34	X35	Y35	Z35	X36	Y36	Z36	X37	Y37	Z37	X38	Y38	Z38	X39	Y39	Z39	X40	Y40	Z40	X41	Y41	Z41	X42	Y42	Z42	X43	Y43	Z43	X44	Y44	Z44	X45	Y45	Z45	X46	Y46	Z46	X47	Y47	Z47	X48	Y48	Z48	
1250	6.2500	842.664381	1298.465860	-19.322585	860.691165	1343.918546	-338.025517	867.332540	1374.554427	-175.329835	781.420059	1249.190661	-207.277852	542.262448	1101.942344	40.713330	722.362314	917.422645	-68.439991	626.162402	1153.196756	-528.288461	726.704597	906.562368	-421.008853	263.504897	1314.610135	-294.662585	454.662802	1315.986526	-400.522531	400.884837	1304.297565	-113.925174	454.397386	1231.510210	-376.579879	408.854493	1254.421285	-131.531540	291.134697	1346.673112	-238.610320	325.155743	1348.297408	-341.219866	313.439910	1205.169882	-86.717471	359.397263	1173.401961	-444.576735	407.625922	1074.430484	-65.841540	467.608133	1010.254772	-65.959543	489.739874	928.019777	-61.244665	498.337499	1027.951942	-77.227612	544.674925	799.842995	-83.807347	543.312121	784.086838	-189.727731	452.075553	687.821137	-66.851984	416.330411	608.599327	-86.661072	345.529826	557.177596	-87.303028	431.526977	600.903515	-125.171607	254.192948	451.126781	-91.584542	179.633539	425.347166	-119.487585	461.156584	351.951442	-123.600256	377.073777	332.532504	-54.323817	384.244107	1051.298928	-434.444906	423.226153	974.001035	-419.150496	454.359119	982.127695	-403.237653	418.377890	885.087830	-410.550089	413.491681	710.131062	-382.777836	389.906173	701.571968	-288.047379	291.468956	620.148284	-407.670074	237.510780	554.565601	-391.843917	154.901636	519.651611	-401.937646	240.243959	555.215404	-350.348789	39.622087	440.675683	-405.287642	-33.669713	470.318974	-366.723973	114.892304	221.286308	-357.405846	50.461627	272.167025	-419.018680	-260.992858	967.683850	-234.895499	-82.932836	80.110895	-436.751943	-82.882505	79.299094	-39.131105	
1251	6.2550	843.494522	1295.213212	-19.869109	859.885487	1346.235387	-337.943413	867.123655	1374.418516	-175.209611	782.701669	1248.742522	-208.655791	541.883874	1100.492470	41.759510	722.192694	917.422146	-67.865581	626.029786	1153.497249	-527.492428	726.424401	906.450507	-420.925887	263.197733	1314.022604	-294.550743	454.738124	1316.379087	-399.160860	400.389645	1301.235366	-113.431447	454.263757	1231.909619	-375.779757	407.813718	1252.170677	-130.618163	290.487051	1345.503252	-237.790810	325.110782	1348.298303	-340.565242	311.517959	1202.417914	-86.956718	360.762153	1173.826445	-445.247529	403.991496	1069.746214	-66.348712	463.208862	1004.640476	-67.101835	483.898754	922.058281	-62.890476	493.957796	1021.968740	-78.026863	537.665382	793.177485	-86.132229	535.547162	777.776410	-191.329224	446.942483	680.320549	-67.775312	412.638234	600.416115	-86.972150	342.901763	547.427539	-86.708414	427.465919	592.880335	-125.845721	253.406644	438.692212	-90.077093	178.990681	411.867259	-118.032111	461.736429	342.308272	-124.192507	378.488246	321.307241	-54.434553	386.855778	1052.028947	-434.053176	426.898398	975.242541	-418.769952	458.005810	983.782409	-403.132306	423.347694	886.285109	-410.029600	420.430362	711.080646	-381.814767	396.040853	703.073046	-286.348196	296.755857	623.408482	-406.374791	240.481583	559.729325	-391.078022	156.904594	527.134868	-401.420489	242.486304	560.571848	-349.729674	39.467768	450.970853	-405.171567	-33.795376	481.519878	-366.823286	113.309925	231.274824	-357.536623	49.130478	282.577492	-419.071231	-261.082314	967.537900	-235.491232	-82.954898	79.895627	-436.794705	-82.913609	79.251485	-39.189044	
1252	6.2600	844.493095	1292.246639	-20.684240	859.112031	1348.787373	-337.932553	866.948149	1374.546254	-174.991538	784.156733	1248.523682	-210.041009	541.465606	1099.658694	43.444503	721.654691	916.996695	-68.113270	626.167944	1153.954952	-526.860592	726.133760	906.440071	-422.182858	262.788354	1313.143284	-294.217883	454.673765	1316.535605	-397.657289	400.053902	1297.884907	-112.918108	453.962324	1231.891016	-374.921621	406.959776	1249.732275	-129.597246	289.850368	1343.978904	-236.971002	324.743435	1347.717534	-339.560249	309.928622	1199.452831	-87.018700	361.982906	1174.024585	-446.121142	400.735944	1064.628223	-67.669413	459.040895	999.111532	-68.472893	478.428287	916.052567	-64.789543	489.899909	1016.012313	-79.053227	530.485542	787.101608	-88.585092	528.065776	771.462300	-193.476949	441.900992	672.965969	-68.628659	408.973915	592.762608	-87.297806	340.044582	538.211632	-86.079370	426.251883	585.311975	-124.757496	252.232473	427.366852	-88.030017	177.886861	399.262994	-116.538976	461.859730	332.684563	-124.044562	379.046174	310.343470	-54.487287	388.947511	1052.381435	-433.745722	429.964251	976.177258	-418.636091	461.033259	985.083289	-403.184722	427.549248	887.119203	-409.768255	426.929674	711.648611	-380.804429	401.723579	704.263621	-284.832190	301.229061	627.017438	-405.610934	243.179543	564.880424	-390.379972	158.595723	534.803139	-400.820347	244.162943	566.586332	-348.264231	39.234909	461.555146	-405.061747	-33.892483	492.195689	-366.876537	112.578065	241.571327	-357.652961	48.485149	293.194360	-419.172808	-261.225974	967.402394	-236.092452	-82.975104	79.689487	-436.887035	-82.941957	79.229216	-39.242171	
1253	6.2650	845.152376	1289.966584	-21.074667	858.549998	1351.353270	-338.009803	866.800696	1374.926439	-174.672838	785.403591	1248.670026	-211.068655	541.620242	1098.701609	44.790006	721.227536	916.750743	-68.117469	625.472523	1154.739248	-525.672842	725.930895	906.318334	-422.323864	262.302520	1311.842971	-293.819611	454.235800	1316.348511	-396.502417	399.964695	1294.447149	-112.444136	453.471003	1231.643535	-374.125555	406.333353	1247.352868	-128.447718	289.140131	1342.305975	-235.953134	324.292388	1346.850233	-338.371077	308.640301	1196.512884	-86.931694	362.582818	1173.846656	-446.341267	397.573878	1060.331553	-67.635917	454.920460	993.552638	-69.767158	473.086490	910.181280	-66.691912	485.955338	1010.075768	-80.181193	523.452132	780.819945	-90.935416	520.237070	764.855983	-195.527779	436.928397	665.461359	-69.488862	405.363308	584.695776	-87.572842	337.166918	528.993769	-85.638160	419.048907	577.079499	-126.945848	251.015348	416.245435	-86.655857	176.864863	387.530819	-114.962580	461.076785	322.151284	-124.465132	378.601670	299.206596	-54.490697	390.388055	1052.467758	-433.493543	432.450377	976.774722	-418.624561	463.498960	986.144387	-403.378429	431.268212	887.673731	-409.765812	433.303529	712.113564	-380.086400	407.163161	705.242145	-283.592951	305.521659	630.671401	-405.101009	245.641471	570.294857	-389.760377	160.469200	542.303438	-400.351926	248.054549	570.596922	-348.555049	39.196757	471.757609	-404.863740	-33.823841	502.767045	-366.938533	112.518918	252.134495	-357.950339	48.343398	303.712956	-419.218520	-261.411163	967.274818	-236.606636	-83.006945	79.545373	-436.880267	-82.975393	79.206813	-39.280769	
1254	6.2700	845.971169	1287.822766	-21.902291	857.888598	1354.052616	-338.084262	866.683391	1375.587151	-174.115503	786.787565	1249.150795	-212.188725	541.848503	1097.834519	46.301081	720.843948	916.577005	-68.126975	626.422038	1155.423700	-525.447281	725.925042	906.159734	-421.538987	261.609954	1310.340512	-292.733060	453.633598	1315.946038	-395.264677	399.966410	1290.887693	-111.857022	452.765938	1231.180686	-373.320719	406.051769	1245.089272	-127.276562	288.561469	1340.061374	-234.774428	323.358392	1346.035038	-337.358725	307.831503	1193.283175	-86.516186	362.658792	1173.388665	-446.302004	394.900614	1055.660928	-68.483573	451.147337	987.935852	-71.270880	467.941601	904.341352	-68.739582	482.443272	1004.004763	-81.540665	516.657660	774.405097	-93.355123	512.209085	759.184530	-198.192738	431.693126	657.681880	-70.733446	401.419872	576.474879	-88.218126	334.720183	519.272316	-86.421759	416.645129	568.411535	-127.545868	250.017395	404.818109	-86.623336	175.834433	375.394261	-114.917910	460.215773	312.562660	-123.467646	377.728683	288.103002	-54.770744	391.253470	1052.370921	-433.634738	434.365334	977.170097	-418.775804	465.380066	986.947886	-403.669156	434.446350	888.117503	-410.092557	439.245551	712.441943	-379.760198	412.557835	705.907875	-282.759127	309.953702	634.029166	-404.334034	248.493608	575.351055	-389.374188	162.545751	549.617730	-399.986860	249.823221	576.442690	-347.316244	39.638975	482.287493	-404.947372	-33.159827	513.282752	-367.120890	113.132954	262.825095	-358.119029	48.811561	314.417208	-419.293823	-261.594068	967.176910	-236.913924	-83.030716	79.466473	-436.928390	-82.972454	79.163628	-39.312314	
1255	6.2750	846.661083	1286.077602	-22.670117	857.145133	1356.806895	-338.308776	866.587123	1376.548864	-173.573197	787.970053	1250.086295	-213.269349	542.331228	1097.099481	47.921856	720.533980	916.330478	-67.958732	627.658849	1155.977951	-525.254338	725.912092	906.003348	-421.884384	260.902144	1308.740532	-291.532728	452.760848	1315.354128	-394.163024	400.192637	1287.337018	-111.183192	451.833957	1230.530230	-372.576906	406.251932	1242.696579	-126.112497	287.924371	1337.931479	-233.599852	322.387365	1344.806618	-336.148073	307.443053	1190.037339	-85.989347	362.316579	1172.874487	-446.166294	392.756011	1050.873304	-69.574547	447.602801	982.234988	-72.871798	462.853516	898.376016	-70.828982	479.134846	997.855194	-83.057607	509.823916	767.840956	-95.881196	502.849301	753.005496	-199.020185	425.977699	650.083407	-72.193177	397.440647	567.946766	-89.247636	331.391539	509.928837	-87.116374	411.867323	561.513677	-127.711621	248.428975	394.195671	-86.279499	174.393756	364.681134	-114.482470	458.569294	300.178507	-125.547093	376.645475	277.365922	-55.019842	391.904834	1052.163576	-434.379869	435.873142	977.365610	-418.974126	466.817900	987.568116	-403.970251	437.260302	888.323734	-410.668653	445.081224	712.716791	-379.327955	418.567808	706.433995	-281.777462	316.111657	636.303937	-400.519740	251.464629	580.370870	-389.213697	164.939126	556.743903	-399.766643	252.986310	581.148839	-347.093949	40.590588	492.636321	-404.936762	-31.932498	523.938884	-367.339393	114.548084	273.589415	-358.190186	50.175280	325.247570	-419.543042	-261.705595	967.084199	-237.057599	-83.064372	79.408852	-436.935866	-82.986590	79.177444	-39.321721	
1256	6.2800	846.869276	1285.264301	-22.439492	856.384161	1359.609237	-338.724266	866.457478	1377.674676	-173.114800	788.431297	1251.359960	-213.583769	543.000398	1096.570234	49.578223	720.325710	916.072243	-67.620532	628.327339	1156.635726	-524.872915	725.944003	905.925944	-422.104486	260.165097	1306.940371	-289.993031	451.635041	1314.705101	-393.097556	400.548133	1283.884973	-110.334484	450.753334	1229.841871	-371.914360	406.697065	1240.064803	-125.080662	287.349901	1335.697302	-232.140992	321.182958	1343.506051	-334.537460	307.482190	1186.690145	-85.216441	361.453134	1172.250002	-445.625623	390.879471	1046.217642	-70.114716	444.340240	976.425835	-74.405144	458.011966	892.263743	-72.814680	476.026251	991.528395	-84.566701	502.856301	761.105757	-98.561270	494.566950	746.644626	-201.956742	420.282680	642.496353	-73.808716	391.668337	559.621235	-91.489941	327.947327	500.627336	-88.106511	407.230565	553.238784	-128.936557	246.037370	384.678434	-85.393960	172.444963	354.408185	-114.601306	456.469782	289.210578	-125.644326	374.801160	267.032475	-55.218007	391.903893	1051.504352	-434.059212	437.023188	977.488297	-419.279964	467.806076	988.064343	-404.288166	439.951413	888.453385	-411.424177	451.544658	713.309264	-379.821595	423.581451	706.763870	-282.198589	320.890499	639.725075	-400.213685	254.784580	585.261860	-389.195117	167.648434	563.807382	-399.628811	256.479782	585.888378	-347.071363	42.153032	503.118209	-404.950882	-30.208394	534.174970	-367.483024	116.707723	284.474784	-358.340961	52.218520	336.001339	-419.563433	-261.685256	967.124267	-236.967069	-83.062967	79.426494	-436.950407	-82.979067	79.263812	-39.351940	
